<svg id="Calque_1" data-name="Calque 1" xmlns="http://www.w3.org/2000/svg" viewBox="0 0 160 320"><defs><style>.cls-1{opacity:0.25;}</style></defs><polygon class="cls-1" points="32 152 40 152 40 136 47.74 136 47.74 128 56 128 56 120 72 120 72 112 88 112 88 120 104 120 104 128 112 128 112 136 120 136 120 152 128 152 128 168 120 168 120 184 112 184 112 192 104 192 104 200 88 200 88 208 71.71 208 71.71 200.15 56.05 200.15 56.05 192 48 192 48 184 40 184 40 168 32 168 32 152"/><polygon points="40 152 47.74 152 47.74 136 56 136 56 128 72 128 72 120 88 120 88 128 104 128 104 136 112 136 112 152 120 152 120 168 111.91 168 111.91 184 104 184 104 192 88 192 88 200 72 200 72 192 56 192 56 184 48 184 48 168 40 168 40 152"/></svg>