<svg id="Calque_1" data-name="Calque 1" xmlns="http://www.w3.org/2000/svg" viewBox="0 0 160 320"><defs><style>.cls-1{opacity:0.5;}</style></defs><polygon points="0 0 16 0 16 16 24 16 24 32 31.57 32 31.57 48 40 48 40 64 47.74 64 47.74 80 56 80 56 96 64 96 64 112 72 112 72 128.3 88 128.3 88 112 96 112 96 96 104 96 104 80 112 80 112 64.15 120.03 64.15 120.03 48 128 48 128 32 136 32 136 15.97 144 15.97 144 0 160 0 160 32.01 152 32.01 152 48 144 48 144 64.15 136 64.15 136 80 128 80 128 96 120 96 120 112 112 112 112 128 104 128 104 144 96 144 96 176 104 176 104 192 112.11 192 112.11 208 120 208 120 224 128 224 128 240 136 240 136 256 144 256 144 272 152 272 152 288 160 288 160 320 144.2 320 144.2 304 136 304 136 288 128 288 128 272 120 272 120 256 112 256 112 240 104 240 104 224 96 224 96 208 88 208 88 192 72 192 72 208 64 208 64 224 56 224 56 240 48 240 48 256 40 256 40 272 32 272 32 288 24 288 24 304 16 304 16 320 0 320 0 288 8 288 8 272 16 272 16 256 24 256 24 240 32 240 32 224 40 224 40 208 48 208 48 192 56 192 56 176 64 176 64 144 56 144 56 128 48 128 48 112 40 112 40 96 32 96 32 80 24 80 24 64 16 64 16 48 8 48 8 32 0 32 0 0"/><polygon class="cls-1" points="0 0 24 0 24 16 32 16 32 32 40 32 40 48 48 48 48 64 56 64 56 80 64 80 64 96 72 96 72 112 88 112 88 96 96 96 96 80 104 80 104 64 112 64 112 48 120.03 48 120.03 32 128 32 128 16 136 16 136 0 160 0 160 48 152 48 152 64 144 64 144 80 136 80 136 96 128 96 128 112 120 112 120 128 112 128 112 144 104 144 104 176 111.91 176 111.91 192 120 192 120 208 128 208 128 224 136 224 136 240 144 240 144 256 152 256 152 272 160 272 160 320 136 320 136 303.97 128 303.97 128 288 120 288 120 272 112 272 112 256 104 256 104 240 96 240 96 224 88 224 88 208 72 208 72 224 64 224 64 240 56 240 56 256 48 256 48 272 40 272 40 288 32 288 32 304 24 304 24 320 0 320 0 272 8 272 8 256 16.04 256 16.04 240 24 240 24 224 32.09 224 32.09 208 40 208 40 192 47.94 192 47.94 176 56 176 56 143.92 48 143.92 48 128 40 128 40 112.13 32 112.13 32 95.99 24 95.99 24 80 16 80 16 64 8 64 8 48 0 48 0 0"/></svg>